<svg xmlns="http://www.w3.org/2000/svg" width="640" height="580" viewBox="0 0 640 580"><rect width="640" height="580" fill="#14171c"/><rect x="17" y="17" width="606" height="546" rx="26" fill="none" stroke="#f4f3ee" stroke-opacity=".11"/><text x="42" y="62" fill="#f4f3ee" font-family="Arial,sans-serif" font-size="21" font-weight="700">FORMA</text><text x="404" y="58" fill="#f4f3ee" font-family="Arial,sans-serif" font-size="10" >COLLECTION</text><text x="503" y="58" fill="#f4f3ee" font-family="Arial,sans-serif" font-size="10" >ABOUT</text><circle cx="588" cy="54" r="10" fill="#b8c9ff"/><text x="320" y="146" fill="#f4f3ee" font-family="Arial,sans-serif" font-size="10" text-anchor="middle" letter-spacing="2">A LITTLE MORE INTENTION</text><text x="320" y="203" fill="#f4f3ee" font-family="Arial,sans-serif" font-size="45" text-anchor="middle">Your next great thing.</text><text x="320" y="237" fill="#f4f3ee" font-family="Arial,sans-serif" font-size="13" text-anchor="middle" opacity=".6">A collection for curious minds.</text><rect x="42" y="283" width="270" height="229" rx="20" fill="#b8c9ff" fill-opacity="0.14" stroke="#f4f3ee" stroke-opacity=".2"/><g><rect x="55" y="297" width="244" height="135" rx="20" fill="#b8c9ff" opacity=".16"/><circle cx="213.6" cy="353.7" r="43.2" fill="#b8c9ff"/><path d="M79.4 405 L164.8 324 L250.20000000000002 405Z" fill="#f4f3ee" opacity=".8"/></g><text x="58" y="463" fill="#f4f3ee" font-family="Arial,sans-serif" font-size="17" >Find your focus</text><rect x="58" y="481" width="215" height="5" rx="2.5" fill="#f4f3ee" opacity="0.17"/><rect x="328" y="283" width="270" height="229" rx="20" fill="#b8c9ff" fill-opacity="0.14" stroke="#f4f3ee" stroke-opacity=".2"/><g><rect x="341" y="297" width="244" height="135" rx="20" fill="#b8c9ff" opacity=".16"/><circle cx="499.6" cy="353.7" r="43.2" fill="#b8c9ff"/><path d="M365.4 405 L450.8 324 L536.2 405Z" fill="#f4f3ee" opacity=".8"/></g><text x="344" y="463" fill="#f4f3ee" font-family="Arial,sans-serif" font-size="17" >Better together</text><rect x="344" y="481" width="215" height="5" rx="2.5" fill="#f4f3ee" opacity="0.17"/></svg>